# xmcd CD database file
#
# Track frame offsets:
#	150
#	20144
#	37863
#	55753
#
# Disc length: 970 seconds
#
# Revision: 0
# Processed by: cddbd v1.4PL0 Copyright (c) Steve Scherf et al.
# Submitted via: CDex 1.50Beta7
#
DISCID=2903c804
DTITLE=Los titanes - Subeme el voltaje...
DYEAR=1900
DGENRE=Salsa
TTITLE0=José Aguirre Ocampo - Ella sabe que me gusta
TTITLE1=Alberto Barros Caraballo - Subeme el voltaje
TTITLE2=Ley Martin - Una Palomita
TTITLE3=Osias Marmolejo Chaverra - No quiero perderte
EXTD=
EXTT0=
EXTT1=
EXTT2=
EXTT3=
PLAYORDER=
